<svg width="757" height="248" viewBox="0 0 757 248" fill="none" xmlns="http://www.w3.org/2000/svg">
<path d="M278.501 83.6649C277.407 90.2299 271.372 108.93 242.568 153.476C222.26 184.882 178.202 225.376 178.948 204.687C179.694 183.997 223.461 98.6517 246.828 58.2421C270.195 17.8324 271.837 24.9445 275.144 32.985C282.259 50.2814 296.107 66.4566 312.909 78.0614C329.31 89.3888 355.74 75.9892 380.275 63.0415C392.495 56.5933 403.17 48.4526 418.654 39.8567C434.138 31.2609 453.833 21.9604 468.356 16.6222C482.879 11.284 491.632 10.1898 497.509 9.62618C503.386 9.06251 506.121 9.06251 505.069 12.8921C504.016 16.7217 499.092 24.3809 487.255 34.3444C475.418 44.308 456.817 56.3439 431.917 68.8356C407.016 81.3274 376.379 93.9103 332.149 103.675C287.918 113.44 231.021 120.005 172.988 123.387C114.956 126.769 57.5123 126.769 29.2877 125.127C1.0631 123.486 3.79852 120.204 29.5529 112.495C55.3073 104.786 103.998 92.7498 221.812 81.8993C339.625 71.0488 525.087 61.7484 625.825 58.325C726.563 54.9015 736.958 57.637 742.586 60.1403C748.214 62.6436 748.762 64.832 746.308 70.0624C743.854 75.2929 738.384 83.4991 715.05 95.9329C691.716 108.367 650.684 124.779 563.623 149.1C476.562 173.42 344.715 205.151 207.214 239.501" stroke="#F3EEE8" stroke-width="17" stroke-linecap="round"/>
<path d="M67.8804 180.427C71.6213 180.012 75.3621 179.596 87.8883 177.2C100.415 174.803 121.613 170.439 130.455 171.62C139.297 172.801 135.14 179.659 130.609 186.206C126.078 192.752 121.298 198.779 116.03 204.586C110.762 210.392 105.15 215.795 98.7394 221.363" stroke="#F3EEE8" stroke-width="17" stroke-linecap="round"/>
</svg>
