<svg width="43" height="110" viewBox="0 0 43 110" fill="none" xmlns="http://www.w3.org/2000/svg">
<path d="M19.8987 2.73135C21.7636 2.26513 25.0554 3.1905 28.937 6.23858C30.8551 7.74482 31.1868 10.6853 31.6636 18.4167C32.1405 26.1482 32.3736 38.9692 30.7453 49.3036C26.3466 77.2227 18.7332 79.7137 16.7341 81.1336C13.1696 83.6653 13.5412 73.1584 7.56162 59.8818C6.3089 57.1004 6.01109 56.4311 5.30823 61.4324C4.60538 66.4336 3.43983 77.1566 2.8394 86.6434C2.23897 96.1302 2.23897 104.056 4.57006 106.507C6.90114 108.958 11.5633 105.695 17.8113 102.382C24.0594 99.0688 31.7519 95.8053 39.6776 92.4429" stroke="#D9D9D9" stroke-width="5" stroke-linecap="round"/>
</svg>
